<svg xmlns="http://www.w3.org/2000/svg" xmlns:xlink="http://www.w3.org/1999/xlink" width="1920" zoomAndPan="magnify" viewBox="0 0 1440 449.999984" height="600" preserveAspectRatio="xMidYMid meet" version="1.0"><path stroke-linecap="butt" transform="matrix(0.75, 0, 0, 0.75, 553.130839, 134.28957)" fill="none" stroke-linejoin="miter" d="M 58.226594 39.499326 L -0.002577 39.499326 L -0.002577 200.791005 L 58.226594 200.791005 C 78.070346 200.791005 94.054722 184.593087 94.054722 164.962877 L 94.054722 75.332662 C 94.054722 55.540994 78.070346 39.499326 58.226594 39.499326 Z M 63.382845 164.962877 C 63.382845 167.723294 60.987011 169.858711 58.226594 169.858711 L 30.934925 169.858711 L 30.934925 70.228495 L 58.226594 70.228495 C 60.987011 70.228495 63.382845 72.572245 63.382845 75.332662 Z M 135.674517 39.290993 L 104.737014 39.290993 L 104.737014 200.791005 L 135.674517 200.791005 Z M 193.882855 131.264958 L 209.716189 131.264958 L 209.716189 164.962877 C 209.716189 167.723294 207.320356 169.858711 204.559939 169.858711 L 181.955771 169.858711 C 179.403687 169.858711 177.26827 167.723294 177.26827 165.171211 L 177.26827 75.332662 C 177.26827 72.572245 179.403687 70.228495 182.164104 70.228495 L 204.351606 70.228495 C 207.320356 70.228495 209.716189 72.572245 209.716189 75.593079 L 209.716189 83.040996 L 240.388067 83.040996 L 240.388067 75.593079 C 240.388067 55.540994 224.190149 39.499326 204.351606 39.499326 L 182.164104 39.499326 C 162.320352 39.499326 146.330768 55.540994 146.330768 75.332662 L 146.330768 165.171211 C 146.330768 184.801421 162.320352 200.791005 181.955771 200.791005 L 204.559939 200.791005 C 224.398482 200.791005 240.388067 184.593087 240.388067 164.962877 L 240.5964 100.327456 L 193.882855 100.327456 Z M 282.216195 39.290993 L 251.283901 39.290993 L 251.283901 200.791005 L 282.216195 200.791005 Z M 292.877654 39.968076 L 292.877654 70.645162 L 334.283907 70.645162 L 334.283907 201.207672 L 364.955785 201.207672 L 364.955785 70.645162 L 406.362038 70.645162 L 406.362038 39.968076 L 364.955785 39.968076 L 364.955785 39.707659 L 334.283907 39.707659 L 334.283907 39.968076 Z M 456.919334 168.817044 L 489.783919 168.817044 L 495.976628 200.791005 L 527.330797 200.791005 L 496.393295 39.290993 L 480.617252 39.290993 L 480.148502 39.499326 L 473.325585 39.499326 L 473.117252 39.290993 L 457.336 39.290993 L 457.336 39.499326 L 417.023497 200.791005 L 449.002666 200.791005 Z M 475.461002 94.129539 L 483.794336 137.879542 L 464.575584 137.879542 Z M 537.971423 200.791005 L 623.487055 200.791005 L 623.487055 169.858711 L 568.908926 169.858711 L 568.908926 39.290993 L 537.971423 39.290993 Z M 537.971423 200.791005 " stroke="#d9d9d9" stroke-width="1.466575" stroke-opacity="1" stroke-miterlimit="4"/><path stroke-linecap="butt" transform="matrix(0.75, 0, 0, 0.75, 1091.015557, 235.553653)" fill="none" stroke-linejoin="miter" d="M 97.49489 170.272226 L 45.411552 170.272226 L 93.224056 70.64201 L 93.224056 39.709716 L 71.869888 39.709716 L 71.869888 39.970133 L 0.0000905307 39.970133 L 0.0000905307 70.64201 L 60.35947 70.64201 L 0.833424 201.209729 L 44.161552 201.209729 L 33.906343 201.209729 L 97.49489 201.209729 Z M 166.375103 39.970133 L 143.979268 39.970133 C 124.34385 39.970133 108.151141 55.954509 108.151141 75.79826 L 108.151141 165.376392 C 108.151141 185.220144 124.34385 201.209729 143.979268 201.209729 L 166.375103 201.209729 C 186.218855 201.209729 202.20844 185.220144 202.20844 165.376392 L 202.20844 75.79826 C 202.20844 55.954509 186.218855 39.970133 166.375103 39.970133 Z M 171.531354 165.376392 C 171.531354 168.136809 169.13552 170.272226 166.375103 170.272226 L 143.979268 170.272226 C 141.218852 170.272226 139.083435 168.136809 139.083435 165.376392 L 139.083435 75.79826 C 139.083435 72.98576 141.218852 70.64201 143.979268 70.64201 L 166.375103 70.64201 C 169.13552 70.64201 171.531354 72.98576 171.531354 75.79826 Z M 267.515736 39.293049 L 267.515736 84.548261 L 245.541776 39.293049 L 212.885524 39.293049 L 212.885524 200.793062 L 243.823026 200.793062 L 243.823026 106.058679 L 267.515736 154.699308 L 267.515736 200.793062 L 298.401155 200.793062 L 298.401155 39.293049 Z M 394.604288 39.501383 L 309.088656 39.293049 L 309.088656 200.793062 L 394.604288 200.793062 L 394.604288 169.855559 L 340.026159 169.855559 L 340.026159 131.267015 L 375.229286 131.267015 L 375.229286 100.329512 L 340.026159 100.329512 L 340.026159 70.225343 L 394.604288 70.225343 Z M 394.604288 39.501383 " stroke="#d9d9d9" stroke-width="1.466575" stroke-opacity="1" stroke-miterlimit="4"/><path stroke-linecap="butt" transform="matrix(0.75, 0, 0, 0.75, 45.000023, 29.000996)" fill="none" stroke-linejoin="miter" d="M 85.776018 39.498675 L 35.833306 39.498675 C 15.989554 39.498675 -0.0000301 55.540343 -0.0000301 75.123677 L -0.0000301 164.962226 C -0.0000301 184.800769 15.989554 200.790354 35.833306 200.790354 L 85.776018 200.790354 L 85.776018 169.85806 L 35.833306 169.85806 C 33.072889 169.85806 30.937472 167.722643 30.937472 164.962226 L 30.937472 75.123677 C 30.937472 72.571594 33.072889 70.227844 35.833306 70.227844 L 85.776018 70.227844 Z M 156.984357 39.707008 L 142.510398 78.769511 L 129.489563 39.707008 L 97.249977 39.707008 L 107.093728 70.436177 L 125.21873 124.858056 L 96.416644 201.207021 L 129.489563 201.207021 L 190.057276 39.707008 Z M 236.140613 131.680974 C 265.359366 131.680974 286.505201 112.462222 286.505201 85.800762 C 286.505201 60.64451 267.703116 41.842425 241.24478 39.707008 L 200.729152 39.707008 L 200.729152 201.207021 L 231.661446 201.207021 L 231.661446 131.680974 Z M 231.86978 70.436177 L 236.140613 70.436177 C 239.317697 70.436177 255.567698 71.321594 255.567698 85.800762 C 255.567698 99.649721 240.828114 100.743471 236.140613 100.743471 L 231.86978 100.743471 Z M 360.265623 39.290341 L 360.265623 100.326804 L 328.07812 100.326804 L 328.07812 39.290341 L 297.145826 39.290341 L 297.145826 200.790354 L 328.07812 200.790354 L 328.07812 131.264307 L 360.265623 131.264307 L 360.265623 200.790354 L 391.203125 200.790354 L 391.203125 39.290341 Z M 487.395841 39.498675 L 401.88021 39.290341 L 401.88021 200.790354 L 487.395841 200.790354 L 487.395841 169.85806 L 432.817712 169.85806 L 432.817712 131.264307 L 468.02084 131.264307 L 468.02084 100.326804 L 432.817712 100.326804 L 432.817712 70.227844 L 487.395841 70.227844 Z M 581.723974 136.160141 C 581.51564 128.03514 578.70314 120.378889 573.807306 114.389306 C 580.213557 106.733055 583.85939 96.894512 583.85939 85.800762 C 583.85939 60.64451 565.057306 41.842425 538.604179 39.707008 L 498.083342 39.967425 L 498.083342 201.207021 L 529.020844 201.207021 L 529.020844 131.680974 L 545.895846 131.680974 C 548.656263 131.680974 550.791679 133.81639 550.791679 136.368474 L 551.208346 201.207021 L 581.932307 201.207021 Z M 533.500011 100.743471 L 529.229178 100.743471 L 529.229178 70.436177 L 533.500011 70.436177 C 536.677095 70.436177 552.927096 71.321594 552.927096 85.800762 C 552.927096 99.649721 538.187512 100.743471 533.500011 100.743471 Z M 533.500011 100.743471 " stroke="#d9d9d9" stroke-width="1.466575" stroke-opacity="1" stroke-miterlimit="4"/></svg>