<svg id="visual" viewBox="0 0 1920 300" width="1920" height="300" xmlns="http://www.w3.org/2000/svg" xmlns:xlink="http://www.w3.org/1999/xlink" version="1.1"><rect x="0" y="0" width="1920" height="300" fill="#ffffff"></rect><path d="M0 82L192 82L192 65L384 65L384 77L576 77L576 117L768 117L768 83L960 83L960 114L1152 114L1152 64L1344 64L1344 80L1536 80L1536 78L1728 78L1728 109L1920 109L1920 70L1920 301L1920 301L1728 301L1728 301L1536 301L1536 301L1344 301L1344 301L1152 301L1152 301L960 301L960 301L768 301L768 301L576 301L576 301L384 301L384 301L192 301L192 301L0 301Z" fill="#15394d"></path><path d="M0 146L192 146L192 157L384 157L384 177L576 177L576 167L768 167L768 142L960 142L960 139L1152 139L1152 153L1344 153L1344 152L1536 152L1536 185L1728 185L1728 168L1920 168L1920 150L1920 301L1920 301L1728 301L1728 301L1536 301L1536 301L1344 301L1344 301L1152 301L1152 301L960 301L960 301L768 301L768 301L576 301L576 301L384 301L384 301L192 301L192 301L0 301Z" fill="#102b40"></path><path d="M0 241L192 241L192 219L384 219L384 245L576 245L576 251L768 251L768 213L960 213L960 239L1152 239L1152 209L1344 209L1344 207L1536 207L1536 244L1728 244L1728 203L1920 203L1920 195L1920 301L1920 301L1728 301L1728 301L1536 301L1536 301L1344 301L1344 301L1152 301L1152 301L960 301L960 301L768 301L768 301L576 301L576 301L384 301L384 301L192 301L192 301L0 301Z" fill="#0d1d33"></path></svg>